<svg xmlns="http://www.w3.org/2000/svg" viewBox="0 0 400 250" role="img" aria-label="BMC Yearbook logo mark">
  <rect width="400" height="250" fill="#000000" />
  <g transform="translate(172 97)">
    <svg width="56" height="56" viewBox="0 0 56 56" fill="none">
      <path
        d="M53.5968 20.4638C51.9443 16.3892 49.52 12.7366 46.3914 9.60793C43.2627 6.47926 39.6101 4.05498 35.5355 2.40251C31.6041 0.808326 27.4522 0 23.1957 0C18.9392 0 14.7873 0.808326 10.8559 2.40251C6.78124 4.05498 3.12867 6.47926 0 9.60793L11.9262 21.5341C18.1407 15.3196 28.2521 15.3196 34.4659 21.5341C40.6797 27.7486 40.6804 37.86 34.4659 44.0738L46.3921 56C49.5207 52.8713 51.945 49.2188 53.5975 45.1441C55.1917 41.2127 56 37.0608 56 32.8043C55.9993 28.5464 55.191 24.3952 53.5968 20.4638Z"
        fill="#ffffff"
      />
      <path
        d="M11.9254 44.073C18.1399 50.2875 28.2514 50.2875 34.4652 44.073L11.9254 21.5332C5.7109 27.7477 5.7109 37.8585 11.9254 44.073Z"
        fill="#ffffff"
      />
    </svg>
  </g>
</svg>
