<svg viewBox="0 0 481.38 517.06" xmlns="http://www.w3.org/2000/svg" aria-hidden="true">
  <path fill="#0B0B0C" d="M320.91,160.47H481.38a0,0,0,0,1,0,0V320.95a0,0,0,0,1,0,0h0A160.47,160.47,0,0,1,320.91,160.47v0A0,0,0,0,1,320.91,160.47Z"/>
  <path fill="#0B0B0C" d="M0,160.46H320.91A160.46,160.46,0,0,0,160.46,0h0A160.46,160.46,0,0,0,0,160.46Z"/>
  <path fill="#0B0B0C" d="M0,196.12H160.47a0,0,0,0,1,0,0V356.59a0,0,0,0,1,0,0h0A160.47,160.47,0,0,1,0,196.12v0A0,0,0,0,1,0,196.12Z" transform="translate(160.47 552.71) rotate(-180)"/>
  <path fill="#0B0B0C" d="M481.38,356.61v0H160.47v0A160.46,160.46,0,0,0,320.93,517.06h0A160.45,160.45,0,0,0,481.38,356.61Z"/>
</svg>
