<svg viewBox="0 0 677 214" xmlns="http://www.w3.org/2000/svg" aria-label="Virtu">
  <path fill="#0B0B0C" d="M609.928 66.3671H676.6V132.802C658.917 132.802 641.959 125.803 629.456 113.344C616.953 100.885 609.928 83.9867 609.928 66.3671Z"/>
  <path fill="#0B0B0C" d="M676.6 147.565H543.271C543.262 156.292 544.98 164.935 548.328 172.999C551.675 181.063 556.586 188.391 562.778 194.562C568.971 200.732 576.324 205.626 584.417 208.961C592.51 212.297 601.184 214.009 609.942 214C618.699 214.007 627.371 212.293 635.462 208.957C643.554 205.621 650.905 200.727 657.097 194.557C663.288 188.386 668.198 181.059 671.544 172.996C674.891 164.933 676.609 156.291 676.6 147.565Z"/>
  <path fill="#0B0B0C" d="M476.6 66.3671L609.928 66.3671C609.928 48.7655 602.911 31.8848 590.421 19.4386C577.93 6.99233 560.989 0.000111958 543.325 0.000111958C534.568 -0.0159149 525.894 1.68889 517.8 5.01697C509.705 8.34505 502.348 13.2311 496.151 19.3954C489.953 25.5598 485.036 32.8814 481.681 40.9414C478.326 49.0014 476.6 57.6414 476.6 66.3671Z"/>
  <path fill="#0B0B0C" d="M543.271 147.552H476.6V81.1169C494.282 81.1169 511.24 88.1162 523.743 100.575C536.247 113.034 543.271 129.932 543.271 147.552Z"/>
  <path fill="#0B0B0C" d="M36.6 175.8L0 75.6H27.4L52.4 151.2L77.2 75.6H104.4L68 175.8H36.6Z"/>
  <path fill="#0B0B0C" d="M115.552 175.8V75.6H141.552V175.8H115.552ZM128.752 60.2C121.793 60.2 116.152 54.5588 116.152 47.6C116.152 40.6412 121.793 35 128.752 35C135.71 35 141.352 40.6412 141.352 47.6C141.352 54.5588 135.71 60.2 128.752 60.2Z"/>
  <path fill="#0B0B0C" d="M157.934 175.8V75.6H183.934V91.8C186.468 86.7333 189.734 82.8 193.734 80C197.734 77.0667 202.334 75.6 207.534 75.6H220.134V98.8H204.934C200.134 98.8 196.134 100.067 192.934 102.6C189.868 105.133 187.601 108.933 186.134 114C184.668 119.067 183.934 125.333 183.934 132.8V175.8H157.934Z"/>
  <path fill="#0B0B0C" d="M274.506 175.8C267.84 175.8 262.173 175.067 257.506 173.6C252.973 172 249.573 169 247.306 164.6C245.04 160.067 243.906 153.6 243.906 145.2V98.8H226.906V75.6H270.013H269.506C255.368 75.6 243.906 64.1385 243.906 50H269.906L270.013 75.6H294.906V98.8H270.013L269.906 142C269.906 145.333 270.24 147.867 270.906 149.6C271.573 151.2 272.84 152.267 274.706 152.8C276.573 153.333 279.106 153.6 282.306 153.6H294.306V175.8H274.506Z"/>
  <path fill="#0B0B0C" d="M340 178.2C328.667 178.2 319.667 174.333 313 166.6C306.467 158.733 303.2 147.333 303.2 132.4V75.6H329.2V130C329.2 138.533 330.8 145.067 334 149.6C337.333 154 342.133 156.2 348.4 156.2C355.467 156.2 360.933 153.733 364.8 148.8C368.667 143.733 370.6 136.733 370.6 127.8V75.8H396.6V175.8H370.6V161.2C367.667 166.4 363.667 170.533 358.6 173.6C353.533 176.667 347.333 178.2 340 178.2Z"/>
</svg>
